<?xml version="1.0" encoding="UTF-8" standalone="no"?>
<!-- Generator: Adobe Illustrator 19.0.0, SVG Export Plug-In . SVG Version: 6.00 Build 0)  -->

<svg
   version="1.1"
   id="Layer_1"
   x="0px"
   y="0px"
   viewBox="0 0 271.38199 280.29999"
   xml:space="preserve"
   width="280"
   height="280"
   xmlns="http://www.w3.org/2000/svg"
   xmlns:svg="http://www.w3.org/2000/svg"><defs
   id="defs47">
	
	
	
	
	
</defs>
<path
   id="SVGCleanerId_0"
   style="fill:#ffffff"
   d="m 211.405,0 c -34.422,0 -40.878,33.777 -75.72,33.777 v 0 C 100.838,33.777 94.387,0 59.965,0 17.812,0 0,43.095 0,85.248 0,127.401 35.743,280.3 77.896,280.3 c 17.828,0 21.924,-97.807 57.795,-97.807 35.871,0 39.967,97.807 57.795,97.807 42.153,0 77.896,-152.899 77.896,-195.052 C 271.382,43.095 253.558,0 211.405,0 Z" /><g
   id="g6"
   transform="translate(-120.315,-120.586)">
		<path
   id="SVGCleanerId_0_1_"
   style="fill:#ffffff"
   d="m 331.72,120.586 c -34.422,0 -40.878,33.777 -75.72,33.777 v 0 c -34.847,0 -41.298,-33.777 -75.72,-33.777 -42.153,0 -59.965,43.095 -59.965,85.248 0,42.153 35.743,195.052 77.896,195.052 17.828,0 21.924,-97.807 57.795,-97.807 35.871,0 39.967,97.807 57.795,97.807 42.153,0 77.896,-152.899 77.896,-195.052 0,-42.153 -17.824,-85.248 -59.977,-85.248 z" />
	</g><path
   style="fill:#b6f0ff"
   d="m 87.7,28.826 c -3.149,-2.591 -5.914,-4.787 -8.576,-6.656 6.508,26.132 29.327,45.471 56.561,45.471 27.234,0 50.048,-19.333 56.556,-45.466 -2.657,1.869 -5.422,4.065 -8.571,6.656 -11.11,9.134 -24.94,20.506 -47.99,20.506 -23.05,0 -36.869,-11.382 -47.98,-20.511 z"
   id="path10" />
<g
   id="g14"
   transform="translate(-120.315,-120.586)">
</g>
<g
   id="g16"
   transform="translate(-120.315,-120.586)">
</g>
<g
   id="g18"
   transform="translate(-120.315,-120.586)">
</g>
<g
   id="g20"
   transform="translate(-120.315,-120.586)">
</g>
<g
   id="g22"
   transform="translate(-120.315,-120.586)">
</g>
<g
   id="g24"
   transform="translate(-120.315,-120.586)">
</g>
<g
   id="g26"
   transform="translate(-120.315,-120.586)">
</g>
<g
   id="g28"
   transform="translate(-120.315,-120.586)">
</g>
<g
   id="g30"
   transform="translate(-120.315,-120.586)">
</g>
<g
   id="g32"
   transform="translate(-120.315,-120.586)">
</g>
<g
   id="g34"
   transform="translate(-120.315,-120.586)">
</g>
<g
   id="g36"
   transform="translate(-120.315,-120.586)">
</g>
<g
   id="g38"
   transform="translate(-120.315,-120.586)">
</g>
<g
   id="g40"
   transform="translate(-120.315,-120.586)">
</g>
<g
   id="g42"
   transform="translate(-120.315,-120.586)">
</g>
<path
   style="fill:#ff8080;fill-rule:evenodd;stroke:#ffffff;stroke-width:0.637819;fill-opacity:1"
   d="M 69.65238,259.4339 C 49.83599,239.04517 20.82007,150.12999 16.29619,95.93141 15.94537,91.72843 15.65538,87.73742 15.65177,87.0625 c -0.004,-0.70753 1.25986,0.7755 2.98438,3.50249 7.7903,12.31885 17.61386,24.31274 28.93824,35.33157 22.84223,22.2259 47.61222,35.77889 73.14544,40.02178 7.61498,1.26538 8.31488,1.48292 6.12716,1.90432 -6.17697,1.18984 -14.4958,6.51571 -19.59459,12.54483 -9.94511,11.75971 -15.91134,25.23603 -26.61679,60.12114 -5.24533,17.09258 -6.9411,21.97015 -7.63831,21.97015 -0.22273,0 -1.72794,-1.3612 -3.34492,-3.02488 z"
   id="path675" /><path
   style="fill:#ff8080;fill-rule:evenodd;stroke:#ffffff;stroke-width:0.637819"
   d="m 196.89159,259.75231 c -0.59189,-1.48856 -3.36263,-10.15722 -6.1572,-19.26368 -10.56601,-34.43074 -16.52124,-48.00221 -26.1302,-59.54854 -5.37078,-6.45366 -13.68651,-11.88565 -20.08119,-13.11743 -2.18771,-0.4214 -1.4878,-0.63894 6.12717,-1.90432 25.73208,-4.27594 50.25216,-17.74153 73.46344,-40.34361 10.97233,-10.68436 21.38886,-23.41167 28.69141,-35.05625 l 2.9952,-4.77612 -0.38987,5.41293 c -1.47958,20.54294 -4.93171,40.05733 -11.77233,66.54727 -12.11791,46.92596 -29.38544,88.82944 -41.92131,101.73134 -1.61648,1.66368 -3.12128,3.02488 -3.34401,3.02488 -0.22272,0 -0.88922,-1.21791 -1.48111,-2.70647 z"
   id="path677" /></svg>
