<?xml version="1.0" encoding="UTF-8" standalone="no"?>
<svg
   version="1.1"
   viewBox="0 0 109.64816 168.06325"
   width="328.94449"
   height="504.18976"
   id="svg32"
   xmlns="http://www.w3.org/2000/svg"
   xmlns:svg="http://www.w3.org/2000/svg">
  <defs
     id="defs36" />
  <!-- svg-source:excalidraw -->
  <g
     stroke-linecap="round"
     transform="rotate(-30.904201,37.982878,46.995242)"
     id="g6">
    <path
       d="M 50,0 98.98,83 50,165.48 0,83"
       stroke="none"
       stroke-width="0"
       fill="#fa5252"
       fill-rule="evenodd"
       id="path2" />
    <path
       d="M 50,0 C 62.94,21.92 75.87,43.84 98.98,83 M 50,0 c 12.8,21.68 25.59,43.37 48.98,83 m 0,0 C 82.44,110.85 65.9,138.7 50,165.48 M 98.98,83 C 84.53,107.34 70.07,131.68 50,165.48 m 0,0 C 31.3,134.63 12.59,103.78 0,83 m 50,82.48 C 38.47,146.46 26.93,127.43 0,83 m 0,0 C 18.55,52.2 37.1,21.41 50,0 M 0,83 C 11.5,63.91 23,44.81 50,0"
       stroke="#868e96"
       stroke-width="1"
       fill="none"
       id="path4" />
  </g>
  <g
     stroke-linecap="round"
     transform="rotate(-30.904201,53.487254,74.345821)"
     id="g12">
    <path
       d="M 50,0 98.98,83 50,165.48 0,83"
       stroke="none"
       stroke-width="0"
       fill="#82c91e"
       fill-rule="evenodd"
       id="path8" />
    <path
       d="M 50,0 C 65.38,26.06 80.75,52.12 98.98,83 M 50,0 c 11.67,19.78 23.34,39.55 48.98,83 m 0,0 C 81.43,112.55 63.88,142.1 50,165.48 M 98.98,83 C 84.55,107.29 70.13,131.59 50,165.48 m 0,0 C 38.12,145.88 26.24,126.28 0,83 m 50,82.48 C 34.54,139.97 19.07,114.47 0,83 m 0,0 C 11.61,63.72 23.23,44.45 50,0 M 0,83 C 13.65,60.35 27.29,37.69 50,0"
       stroke="#868e96"
       stroke-width="1"
       fill="none"
       id="path10" />
  </g>
  <g
     stroke-linecap="round"
     transform="rotate(-30.904201,71.649931,101.83228)"
     id="g18">
    <path
       d="M 50,0 98.98,83 50,165.48 0,83"
       stroke="none"
       stroke-width="0"
       fill="#4c6ef5"
       fill-rule="evenodd"
       id="path14" />
    <path
       d="M 50,0 C 63.19,22.35 76.38,44.71 98.98,83 M 50,0 c 18.14,30.74 36.28,61.48 48.98,83 m 0,0 C 84.38,107.58 69.79,132.16 50,165.48 M 98.98,83 C 81.29,112.79 63.6,142.58 50,165.48 m 0,0 C 35,140.74 20.01,116.01 0,83 m 50,82.48 C 30.14,132.72 10.28,99.96 0,83 m 0,0 C 17.26,54.35 34.51,25.71 50,0 M 0,83 C 15.6,57.1 31.2,31.21 50,0"
       stroke="#868e96"
       stroke-width="1"
       fill="none"
       id="path16" />
  </g>
  <g
     stroke-linecap="round"
     transform="rotate(173.64375,31.955111,60.930243)"
     id="g24">
    <path
       d="m 55.07,27.36 c 0,1.58 -0.14,3.19 -0.42,4.75 -0.27,1.56 -0.69,3.12 -1.24,4.61 -0.54,1.49 -1.23,2.95 -2.03,4.32 -0.79,1.37 -1.73,2.7 -2.75,3.91 -1.02,1.21 -2.17,2.35 -3.39,3.37 -1.22,1.02 -2.56,1.94 -3.94,2.74 -1.38,0.79 -2.85,1.47 -4.35,2.01 -1.49,0.54 -3.06,0.96 -4.63,1.24 -1.57,0.27 -3.19,0.41 -4.78,0.41 -1.6,0 -3.22,-0.14 -4.79,-0.41 -1.57,-0.28 -3.13,-0.7 -4.63,-1.24 -1.5,-0.54 -2.97,-1.22 -4.35,-2.01 C 12.39,50.26 11.06,49.34 9.84,48.32 8.62,47.3 7.47,46.16 6.44,44.95 5.42,43.74 4.49,42.41 3.69,41.04 2.89,39.67 2.21,38.21 1.66,36.72 1.12,35.23 0.7,33.67 0.42,32.11 0.14,30.55 0,28.94 0,27.36 0,25.78 0.14,24.17 0.42,22.61 0.7,21.05 1.12,19.49 1.66,18 2.21,16.51 2.89,15.05 3.69,13.68 4.49,12.31 5.42,10.99 6.44,9.77 7.47,8.56 8.62,7.42 9.84,6.4 11.06,5.38 12.39,4.46 13.77,3.67 15.15,2.87 16.62,2.19 18.12,1.65 19.62,1.11 21.18,0.69 22.75,0.42 24.32,0.14 25.94,0 27.54,0 c 1.59,0 3.21,0.14 4.78,0.42 1.57,0.27 3.14,0.69 4.63,1.23 1.5,0.54 2.97,1.22 4.35,2.02 1.38,0.79 2.72,1.71 3.94,2.73 1.22,1.02 2.37,2.16 3.39,3.37 1.02,1.22 1.96,2.54 2.75,3.91 0.8,1.37 1.49,2.83 2.03,4.32 0.55,1.49 0.97,3.05 1.24,4.61 0.28,1.56 0.35,3.96 0.42,4.75 0.07,0.79 0.07,-0.79 0,0"
       stroke="none"
       stroke-width="0"
       fill="#ced4da"
       id="path20" />
    <path
       d="m 55.07,27.36 c 0,1.58 -0.14,3.19 -0.42,4.75 -0.27,1.56 -0.69,3.12 -1.24,4.61 -0.54,1.49 -1.23,2.95 -2.03,4.32 -0.79,1.37 -1.73,2.7 -2.75,3.91 -1.02,1.21 -2.17,2.35 -3.39,3.37 -1.22,1.02 -2.56,1.94 -3.94,2.74 -1.38,0.79 -2.85,1.47 -4.35,2.01 -1.49,0.54 -3.06,0.96 -4.63,1.24 -1.57,0.27 -3.19,0.41 -4.78,0.41 -1.6,0 -3.22,-0.14 -4.79,-0.41 -1.57,-0.28 -3.13,-0.7 -4.63,-1.24 -1.5,-0.54 -2.97,-1.22 -4.35,-2.01 C 12.39,50.26 11.06,49.34 9.84,48.32 8.62,47.3 7.47,46.16 6.44,44.95 5.42,43.74 4.49,42.41 3.69,41.04 2.89,39.67 2.21,38.21 1.66,36.72 1.12,35.23 0.7,33.67 0.42,32.11 0.14,30.55 0,28.94 0,27.36 0,25.78 0.14,24.17 0.42,22.61 0.7,21.05 1.12,19.49 1.66,18 2.21,16.51 2.89,15.05 3.69,13.68 4.49,12.31 5.42,10.99 6.44,9.77 7.47,8.56 8.62,7.42 9.84,6.4 11.06,5.38 12.39,4.46 13.77,3.67 15.15,2.87 16.62,2.19 18.12,1.65 19.62,1.11 21.18,0.69 22.75,0.42 24.32,0.14 25.94,0 27.54,0 c 1.59,0 3.21,0.14 4.78,0.42 1.57,0.27 3.14,0.69 4.63,1.23 1.5,0.54 2.97,1.22 4.35,2.02 1.38,0.79 2.72,1.71 3.94,2.73 1.22,1.02 2.37,2.16 3.39,3.37 1.02,1.22 1.96,2.54 2.75,3.91 0.8,1.37 1.49,2.83 2.03,4.32 0.55,1.49 0.97,3.05 1.24,4.61 0.28,1.56 0.35,3.96 0.42,4.75 0.07,0.79 0.07,-0.79 0,0"
       stroke="#868e96"
       stroke-width="1"
       fill="none"
       id="path22" />
  </g>
  <g
     stroke-linecap="round"
     transform="rotate(-6.3562508,667.15332,-190.40495)"
     id="g30">
    <path
       d="m 40,21.92 c 0,1.27 -0.1,2.56 -0.3,3.81 -0.2,1.25 -0.51,2.5 -0.91,3.69 -0.39,1.19 -0.89,2.36 -1.47,3.46 -0.58,1.1 -1.25,2.16 -2,3.13 -0.74,0.97 -1.58,1.89 -2.46,2.7 -0.89,0.82 -1.86,1.56 -2.86,2.19 -1,0.64 -2.07,1.18 -3.16,1.62 -1.09,0.43 -2.23,0.77 -3.37,0.99 -1.14,0.22 -2.31,0.33 -3.47,0.33 -1.16,0 -2.33,-0.11 -3.47,-0.33 C 15.39,43.29 14.25,42.95 13.16,42.52 12.07,42.08 11,41.54 10,40.9 9,40.27 8.03,39.53 7.14,38.71 6.26,37.9 5.42,36.98 4.68,36.01 3.93,35.04 3.26,33.98 2.68,32.88 2.1,31.78 1.6,30.61 1.21,29.42 0.81,28.23 0.5,26.98 0.3,25.73 0.1,24.48 0,23.19 0,21.92 0,20.65 0.1,19.36 0.3,18.11 0.5,16.86 0.81,15.62 1.21,14.42 1.6,13.23 2.1,12.06 2.68,10.96 3.26,9.86 3.93,8.8 4.68,7.83 5.42,6.86 6.26,5.94 7.14,5.13 8.03,4.31 9,3.57 10,2.94 11,2.3 12.07,1.76 13.16,1.32 14.25,0.89 15.39,0.55 16.53,0.33 17.67,0.11 18.84,0 20,0 c 1.16,0 2.33,0.11 3.47,0.33 1.14,0.22 2.28,0.56 3.37,0.99 1.09,0.44 2.16,0.98 3.16,1.62 1,0.63 1.97,1.37 2.86,2.19 0.88,0.81 1.72,1.73 2.46,2.7 0.75,0.97 1.42,2.03 2,3.13 0.58,1.1 1.08,2.27 1.47,3.46 0.4,1.2 0.71,2.44 0.91,3.69 0.2,1.25 0.25,3.18 0.3,3.81 0.05,0.63 0.05,-0.63 0,0"
       stroke="none"
       stroke-width="0"
       fill="#868e96"
       id="path26" />
    <path
       d="m 40,21.92 c 0,1.27 -0.1,2.56 -0.3,3.81 -0.2,1.25 -0.51,2.5 -0.91,3.69 -0.39,1.19 -0.89,2.36 -1.47,3.46 -0.58,1.1 -1.25,2.16 -2,3.13 -0.74,0.97 -1.58,1.89 -2.46,2.7 -0.89,0.82 -1.86,1.56 -2.86,2.19 -1,0.64 -2.07,1.18 -3.16,1.62 -1.09,0.43 -2.23,0.77 -3.37,0.99 -1.14,0.22 -2.31,0.33 -3.47,0.33 -1.16,0 -2.33,-0.11 -3.47,-0.33 C 15.39,43.29 14.25,42.95 13.16,42.52 12.07,42.08 11,41.54 10,40.9 9,40.27 8.03,39.53 7.14,38.71 6.26,37.9 5.42,36.98 4.68,36.01 3.93,35.04 3.26,33.98 2.68,32.88 2.1,31.78 1.6,30.61 1.21,29.42 0.81,28.23 0.5,26.98 0.3,25.73 0.1,24.48 0,23.19 0,21.92 0,20.65 0.1,19.36 0.3,18.11 0.5,16.86 0.81,15.62 1.21,14.42 1.6,13.23 2.1,12.06 2.68,10.96 3.26,9.86 3.93,8.8 4.68,7.83 5.42,6.86 6.26,5.94 7.14,5.13 8.03,4.31 9,3.57 10,2.94 11,2.3 12.07,1.76 13.16,1.32 14.25,0.89 15.39,0.55 16.53,0.33 17.67,0.11 18.84,0 20,0 c 1.16,0 2.33,0.11 3.47,0.33 1.14,0.22 2.28,0.56 3.37,0.99 1.09,0.44 2.16,0.98 3.16,1.62 1,0.63 1.97,1.37 2.86,2.19 0.88,0.81 1.72,1.73 2.46,2.7 0.75,0.97 1.42,2.03 2,3.13 0.58,1.1 1.08,2.27 1.47,3.46 0.4,1.2 0.71,2.44 0.91,3.69 0.2,1.25 0.25,3.18 0.3,3.81 0.05,0.63 0.05,-0.63 0,0"
       stroke="#ffffff"
       stroke-width="1"
       fill="none"
       id="path28" />
  </g>
</svg>
